<svg width="24" height="24" viewBox="0 0 24 24" fill="none" xmlns="http://www.w3.org/2000/svg">
<circle cx="12" cy="12" r="12" fill="#4B5767"/>
<path d="M9.79375 17.4999H7C6.86739 17.4999 6.74022 17.4473 6.64645 17.3535C6.55268 17.2597 6.5 17.1326 6.5 16.9999V14.2062C6.49978 14.1413 6.51236 14.0769 6.53702 14.0169C6.56169 13.9568 6.59796 13.9022 6.64375 13.8562L14.1438 6.3562C14.1903 6.30895 14.2457 6.27144 14.3069 6.24583C14.3681 6.22022 14.4337 6.20703 14.5 6.20703C14.5663 6.20703 14.632 6.22022 14.6931 6.24583C14.7543 6.27144 14.8097 6.30895 14.8563 6.3562L17.6438 9.1437C17.691 9.19022 17.7285 9.24568 17.7541 9.30684C17.7797 9.368 17.7929 9.43364 17.7929 9.49995C17.7929 9.56625 17.7797 9.63189 17.7541 9.69305C17.7285 9.75421 17.691 9.80967 17.6438 9.8562L10.1438 17.3562C10.0977 17.402 10.0431 17.4383 9.98307 17.4629C9.92301 17.4876 9.85868 17.5002 9.79375 17.4999V17.4999Z" stroke="white" stroke-width="1.5" stroke-linecap="round" stroke-linejoin="round"/>
<path d="M12.5 8L16 11.5" stroke="white" stroke-width="1.5" stroke-linecap="round" stroke-linejoin="round"/>
</svg>
