<svg width="238" height="159" viewBox="0 0 238 159" fill="none" xmlns="http://www.w3.org/2000/svg">
<path fill-rule="evenodd" clip-rule="evenodd" d="M0 92.0918V101.532H14.7546L20.704 92.0918H0Z" fill="black"/>
<path fill-rule="evenodd" clip-rule="evenodd" d="M32.127 101.533L44.0258 92.092H67.1096C78.8224 92.092 76.8263 78.8753 68.0251 78.8753H51.6411C32.4156 78.8757 34.1358 47.9579 51.4031 47.9575H84.7199L84.9579 57.6341H56.1626C49.0616 57.6341 47.4836 69.6707 56.1626 69.6707H72.583C92.7236 69.6707 93.337 101.533 73.535 101.533H32.127Z" fill="black"/>
<path fill-rule="evenodd" clip-rule="evenodd" d="M95.8018 85.8392C95.8018 97.8418 106.863 101.533 119.153 101.533C131.034 101.533 142.504 97.7064 142.504 83.9432V47.9575H131.17V85.5683L106.999 86.2455V47.9575H95.8018C95.8018 47.9575 95.8018 85.8396 95.8018 85.8392Z" fill="black"/>
<path fill-rule="evenodd" clip-rule="evenodd" d="M236.057 92.092V101.533H169.807C159.805 101.533 152.27 95.5094 152.27 82.0622V47.9575H163.572V78.8753C163.572 88.8852 167.923 92.092 173.509 92.092H236.057Z" fill="black"/>
<path fill-rule="evenodd" clip-rule="evenodd" d="M1.29834 159V149.56H217.066C228.779 149.56 226.783 136.343 217.982 136.343H206.528C187.303 136.343 189.023 105.425 206.29 105.425H234.676L234.914 115.102H211.05C203.949 115.102 202.371 127.138 211.05 127.138H222.54C242.68 127.138 243.294 159 223.492 159H1.29834Z" fill="#F07C00"/>
<path fill-rule="evenodd" clip-rule="evenodd" d="M21.6561 106.168C32.8977 106.168 42.0151 115.495 42.0151 127.002C42.0151 138.512 32.8977 147.836 21.6561 147.836C10.416 147.836 1.29785 138.512 1.29785 127.002C1.29785 115.495 10.416 106.168 21.6561 106.168ZM21.6565 112.636C27.9613 112.636 33.0746 119.068 33.0746 127.003C33.0746 134.939 27.9613 141.369 21.6565 141.369C15.3525 141.369 10.2388 134.939 10.2388 127.003C10.2388 119.068 15.3525 112.636 21.6565 112.636Z" fill="#F07C00"/>
<path fill-rule="evenodd" clip-rule="evenodd" d="M20.4429 101.532L25.6932 92.0918H36.3323L26.2458 101.532H20.4429Z" fill="#F07C00"/>
<path fill-rule="evenodd" clip-rule="evenodd" d="M41.7207 105.961L55.3996 126.691L41.5825 147.283H51.9453L61.0647 133.418L70.0456 147.283H80.5465L66.4532 126.553L79.9935 105.961H69.9074L60.9262 119.964L52.2216 105.961H41.7207Z" fill="#F07C00"/>
<path fill-rule="evenodd" clip-rule="evenodd" d="M94.5014 105.961H85.6587V147.283H94.5014V105.961Z" fill="#F07C00"/>
<path fill-rule="evenodd" clip-rule="evenodd" d="M101.686 105.961V147.283H125.728C131.17 147.283 140.005 142.386 140.511 127.789C140.65 114.061 134.431 105.961 124.76 105.961H101.686ZM109.976 112.825V140.144H121.997C134.353 140.143 134.619 112.825 121.72 112.825H109.976Z" fill="#F07C00"/>
<path fill-rule="evenodd" clip-rule="evenodd" d="M166.64 106.168C177.882 106.168 186.999 115.495 186.999 127.002C186.999 138.512 177.882 147.836 166.64 147.836C155.4 147.836 146.282 138.512 146.282 127.002C146.282 115.495 155.4 106.168 166.64 106.168ZM166.64 112.636C172.945 112.636 178.058 119.068 178.058 127.003C178.058 134.939 172.945 141.369 166.64 141.369C160.336 141.369 155.223 134.939 155.223 127.003C155.223 119.068 160.336 112.636 166.64 112.636Z" fill="#F07C00"/>
<path fill-rule="evenodd" clip-rule="evenodd" d="M110.78 32.9707C127.512 37.0574 137.6 56.5736 136.363 78.8753C134.931 96.5192 108.201 102.818 102.024 82.181C99.2195 63.8477 118.221 61.8609 110.78 32.9707Z" fill="#F07C00"/>
<path fill-rule="evenodd" clip-rule="evenodd" d="M111.726 0C132.439 13.0679 117.965 20.7898 125.801 35.1941C104.938 19.0078 119.113 14.1074 111.726 0Z" fill="#F07C00"/>
</svg>
